<?xml version="1.0" encoding="UTF-8" standalone="no"?>
<!-- Created with Inkscape (http://www.inkscape.org/) -->

<svg
   xmlns:dc="http://purl.org/dc/elements/1.1/"
   xmlns:cc="http://creativecommons.org/ns#"
   xmlns:rdf="http://www.w3.org/1999/02/22-rdf-syntax-ns#"
   xmlns:svg="http://www.w3.org/2000/svg"
   xmlns="http://www.w3.org/2000/svg"
   xmlns:sodipodi="http://sodipodi.sourceforge.net/DTD/sodipodi-0.dtd"
   xmlns:inkscape="http://www.inkscape.org/namespaces/inkscape"
   width="744.09448819"
   height="1052.3622047"
   id="svg7242"
   version="1.1"
   inkscape:version="0.48.2 r9819"
   sodipodi:docname="panada_head.svg"
   inkscape:export-filename=""
   inkscape:export-xdpi="90"
   inkscape:export-ydpi="90">
  <defs
     id="defs7244">
    <inkscape:perspective
       id="perspective10"
       inkscape:persp3d-origin="372.04724 : 350.78739 : 1"
       inkscape:vp_z="744.09448 : 526.18109 : 1"
       inkscape:vp_y="0 : 1000 : 0"
       inkscape:vp_x="0 : 526.18109 : 1"
       sodipodi:type="inkscape:persp3d" />
    <linearGradient
       id="linearGradient3673">
      <stop
         id="stop3675"
         offset="0"
         style="stop-color:#5aa02c;stop-opacity:1;" />
      <stop
         id="stop3677"
         offset="1"
         style="stop-color:#83e741;stop-opacity:1;" />
    </linearGradient>
    <linearGradient
       id="linearGradient3786">
      <stop
         id="stop3788"
         offset="0"
         style="stop-color:#f0f0f0;stop-opacity:1;" />
      <stop
         id="stop3790"
         offset="1"
         style="stop-color:#ffffff;stop-opacity:1;" />
    </linearGradient>
  </defs>
  <sodipodi:namedview
     id="base"
     pagecolor="#ffffff"
     bordercolor="#666666"
     borderopacity="1.0"
     inkscape:pageopacity="0.0"
     inkscape:pageshadow="2"
     inkscape:zoom="3.959798"
     inkscape:cx="338.20827"
     inkscape:cy="592.88184"
     inkscape:document-units="px"
     inkscape:current-layer="layer1"
     showgrid="false"
     inkscape:window-width="1174"
     inkscape:window-height="1068"
     inkscape:window-x="580"
     inkscape:window-y="0"
     inkscape:window-maximized="0" />
  <metadata
     id="metadata7247">
    <rdf:RDF>
      <cc:Work
         rdf:about="">
        <dc:format>image/svg+xml</dc:format>
        <dc:type
           rdf:resource="http://purl.org/dc/dcmitype/StillImage" />
        <dc:title></dc:title>
      </cc:Work>
    </rdf:RDF>
  </metadata>
  <g
     inkscape:label="Layer 1"
     inkscape:groupmode="layer"
     id="layer1">
    <rect
       style="fill:none;fill-opacity:1;stroke:none"
       id="rect7250"
       width="144"
       height="168"
       x="279.81226"
       y="377.0752"
       inkscape:export-filename=""
       inkscape:export-xdpi="53.57143"
       inkscape:export-ydpi="53.57143" />
    <g
       id="g8420">
      <path
         inkscape:export-ydpi="73.910004"
         inkscape:export-xdpi="73.910004"
         inkscape:export-filename=""
         transform="matrix(0.10752467,0,0,0.10437107,352.16018,406.78642)"
         d="m 485.71429,255.21933 a 472.85715,391.42856 0 1 1 -945.71429,0 472.85715,391.42856 0 1 1 945.71429,0 z"
         sodipodi:ry="391.42856"
         sodipodi:rx="472.85715"
         sodipodi:cy="255.21933"
         sodipodi:cx="12.857142"
         id="path2816"
         style="fill:#000000;fill-opacity:1;fill-rule:evenodd;stroke:none"
         sodipodi:type="arc" />
      <path
         inkscape:export-ydpi="73.910004"
         inkscape:export-xdpi="73.910004"
         inkscape:export-filename=""
         transform="matrix(0.13052134,-0.04680394,0.04680394,0.13052134,387.8753,355.1869)"
         d="m -445.71427,125.21932 a 112.85714,135.71428 0 1 1 -225.71428,0 112.85714,135.71428 0 1 1 225.71428,0 z"
         sodipodi:ry="135.71428"
         sodipodi:rx="112.85714"
         sodipodi:cy="125.21932"
         sodipodi:cx="-558.57141"
         id="path3590"
         style="fill:#000000;fill-opacity:1;stroke:none"
         sodipodi:type="arc" />
      <path
         inkscape:export-ydpi="73.910004"
         inkscape:export-xdpi="73.910004"
         inkscape:export-filename=""
         sodipodi:type="arc"
         style="fill:#000000;fill-opacity:1;stroke:none"
         id="path3592"
         sodipodi:cx="-558.57141"
         sodipodi:cy="125.21932"
         sodipodi:rx="112.85714"
         sodipodi:ry="135.71428"
         d="m -445.71427,125.21932 a 112.85714,135.71428 0 1 1 -225.71428,0 112.85714,135.71428 0 1 1 225.71428,0 z"
         transform="matrix(-0.12244298,-0.06507035,-0.06507035,0.12244298,325.62346,345.49259)" />
      <path
         inkscape:export-ydpi="73.910004"
         inkscape:export-xdpi="73.910004"
         inkscape:export-filename=""
         sodipodi:type="arc"
         style="fill:#ffffff;fill-opacity:1;fill-rule:evenodd;stroke:none"
         id="path3599"
         sodipodi:cx="12.857142"
         sodipodi:cy="255.21933"
         sodipodi:rx="472.85715"
         sodipodi:ry="391.42856"
         d="m 485.71429,255.21933 a 472.85715,391.42856 0 1 1 -945.71429,0 472.85715,391.42856 0 1 1 945.71429,0 z"
         transform="matrix(0.0973214,0,0,0.09446706,352.29137,409.31411)" />
      <path
         inkscape:export-ydpi="73.910004"
         inkscape:export-xdpi="73.910004"
         inkscape:export-filename=""
         transform="matrix(-0.09632193,-0.05118874,-0.05118874,0.09632193,338.47569,356.51733)"
         d="m -445.71427,125.21932 a 112.85714,135.71428 0 1 1 -225.71428,0 112.85714,135.71428 0 1 1 225.71428,0 z"
         sodipodi:ry="135.71428"
         sodipodi:rx="112.85714"
         sodipodi:cy="125.21932"
         sodipodi:cx="-558.57141"
         id="path3601"
         style="fill:#ffffff;fill-opacity:1;stroke:none"
         sodipodi:type="arc" />
      <path
         inkscape:export-ydpi="73.910004"
         inkscape:export-xdpi="73.910004"
         inkscape:export-filename=""
         sodipodi:type="arc"
         style="fill:#ffffff;fill-opacity:1;stroke:none"
         id="path3603"
         sodipodi:cx="-558.57141"
         sodipodi:cy="125.21932"
         sodipodi:rx="112.85714"
         sodipodi:ry="135.71428"
         d="m -445.71427,125.21932 a 112.85714,135.71428 0 1 1 -225.71428,0 112.85714,135.71428 0 1 1 225.71428,0 z"
         transform="matrix(0.09894414,-0.0354806,0.0354806,0.09894414,371.65507,365.46587)" />
      <path
         inkscape:export-ydpi="73.910004"
         inkscape:export-xdpi="73.910004"
         inkscape:export-filename=""
         transform="matrix(0.06526179,-0.02340237,0.02340237,0.06526179,354.3535,376.43011)"
         d="m -445.71427,125.21932 a 112.85714,135.71428 0 1 1 -225.71428,0 112.85714,135.71428 0 1 1 225.71428,0 z"
         sodipodi:ry="135.71428"
         sodipodi:rx="112.85714"
         sodipodi:cy="125.21932"
         sodipodi:cx="-558.57141"
         id="path3605"
         style="fill:#000000;fill-opacity:1;stroke:none"
         sodipodi:type="arc" />
      <path
         inkscape:export-ydpi="73.910004"
         inkscape:export-xdpi="73.910004"
         inkscape:export-filename=""
         sodipodi:type="arc"
         style="fill:#000000;fill-opacity:1;stroke:none"
         id="path3609"
         sodipodi:cx="-558.57141"
         sodipodi:cy="125.21932"
         sodipodi:rx="112.85714"
         sodipodi:ry="135.71428"
         d="m -445.71427,125.21932 a 112.85714,135.71428 0 1 1 -225.71428,0 112.85714,135.71428 0 1 1 225.71428,0 z"
         transform="matrix(-0.06515446,-0.03462528,-0.03462528,0.06515446,353.81088,369.67196)" />
      <g
         inkscape:export-ydpi="73.910004"
         inkscape:export-xdpi="73.910004"
         inkscape:export-filename=""
         transform="matrix(0.10437307,0,0,0.10437307,376.35562,386.50771)"
         id="g3645">
        <path
           sodipodi:type="arc"
           style="fill:#000000;fill-opacity:1;stroke:none"
           id="path3611"
           sodipodi:cx="-357.14285"
           sodipodi:cy="325.21933"
           sodipodi:rx="128.57143"
           sodipodi:ry="90"
           d="m -228.57143,325.21933 c 0,49.70563 -57.56338,90 -128.57142,90 -71.00804,0 -128.57143,-40.29437 -128.57143,-90 0,-49.70563 57.56339,-90 128.57143,-90 71.00804,0 128.57142,40.29437 128.57142,90 z"
           transform="matrix(-0.95339017,0.30174027,0.30174027,0.95339017,-844.34254,108.63709)" />
        <g
           id="g3621"
           transform="translate(442.85714,51.428571)">
          <path
             d="m -757.14286,290.93362 c 0,40.23789 -32.61925,72.85714 -72.85714,72.85714 -40.23789,0 -72.85714,-32.61925 -72.85714,-72.85714 0,-40.23788 32.61925,-72.85714 72.85714,-72.85714 40.23789,0 72.85714,32.61926 72.85714,72.85714 z"
             sodipodi:ry="72.85714"
             sodipodi:rx="72.85714"
             sodipodi:cy="290.93362"
             sodipodi:cx="-830"
             id="path3615"
             style="fill:#000000;fill-opacity:1;stroke:none"
             sodipodi:type="arc" />
          <path
             transform="matrix(0.76470587,0,0,0.76470587,-195.29413,68.454973)"
             sodipodi:type="arc"
             style="fill:#ffffff;fill-opacity:1;stroke:none"
             id="path3617"
             sodipodi:cx="-830"
             sodipodi:cy="290.93362"
             sodipodi:rx="72.85714"
             sodipodi:ry="72.85714"
             d="m -757.14286,290.93362 c 0,40.23789 -32.61925,72.85714 -72.85714,72.85714 -40.23789,0 -72.85714,-32.61925 -72.85714,-72.85714 0,-40.23788 32.61925,-72.85714 72.85714,-72.85714 40.23789,0 72.85714,32.61926 72.85714,72.85714 z" />
          <path
             transform="matrix(0.21568624,0,0,0.21568624,-639.55185,245.3261)"
             sodipodi:type="arc"
             style="fill:#000000;fill-opacity:1;stroke:none"
             id="path3619"
             sodipodi:cx="-830"
             sodipodi:cy="290.93362"
             sodipodi:rx="72.85714"
             sodipodi:ry="72.85714"
             d="m -757.14286,290.93362 c 0,40.23789 -32.61925,72.85714 -72.85714,72.85714 -40.23789,0 -72.85714,-32.61925 -72.85714,-72.85714 0,-40.23788 32.61925,-72.85714 72.85714,-72.85714 40.23789,0 72.85714,32.61926 72.85714,72.85714 z" />
        </g>
      </g>
      <g
         inkscape:export-ydpi="73.910004"
         inkscape:export-xdpi="73.910004"
         inkscape:export-filename=""
         transform="matrix(0.10437307,0,0,0.10437307,376.35562,387.70054)"
         id="g3638">
        <path
           transform="matrix(0.95339017,0.30174027,-0.30174027,0.95339017,367.19968,94.351371)"
           d="m -228.57143,325.21933 c 0,49.70563 -57.56338,90 -128.57142,90 -71.00804,0 -128.57143,-40.29437 -128.57143,-90 0,-49.70563 57.56339,-90 128.57143,-90 71.00804,0 128.57142,40.29437 128.57142,90 z"
           sodipodi:ry="90"
           sodipodi:rx="128.57143"
           sodipodi:cy="325.21933"
           sodipodi:cx="-357.14285"
           id="path3613"
           style="fill:#000000;fill-opacity:1;stroke:none"
           sodipodi:type="arc" />
        <g
           transform="matrix(-1,0,0,1,-922.85714,39.999999)"
           id="g3626">
          <path
             sodipodi:type="arc"
             style="fill:#000000;fill-opacity:1;stroke:none"
             id="path3628"
             sodipodi:cx="-830"
             sodipodi:cy="290.93362"
             sodipodi:rx="72.85714"
             sodipodi:ry="72.85714"
             d="m -757.14286,290.93362 c 0,40.23789 -32.61925,72.85714 -72.85714,72.85714 -40.23789,0 -72.85714,-32.61925 -72.85714,-72.85714 0,-40.23788 32.61925,-72.85714 72.85714,-72.85714 40.23789,0 72.85714,32.61926 72.85714,72.85714 z" />
          <path
             d="m -757.14286,290.93362 c 0,40.23789 -32.61925,72.85714 -72.85714,72.85714 -40.23789,0 -72.85714,-32.61925 -72.85714,-72.85714 0,-40.23788 32.61925,-72.85714 72.85714,-72.85714 40.23789,0 72.85714,32.61926 72.85714,72.85714 z"
             sodipodi:ry="72.85714"
             sodipodi:rx="72.85714"
             sodipodi:cy="290.93362"
             sodipodi:cx="-830"
             id="path3630"
             style="fill:#ffffff;fill-opacity:1;stroke:none"
             sodipodi:type="arc"
             transform="matrix(0.76470587,0,0,0.76470587,-195.29413,68.454973)" />
          <path
             d="m -757.14286,290.93362 c 0,40.23789 -32.61925,72.85714 -72.85714,72.85714 -40.23789,0 -72.85714,-32.61925 -72.85714,-72.85714 0,-40.23788 32.61925,-72.85714 72.85714,-72.85714 40.23789,0 72.85714,32.61926 72.85714,72.85714 z"
             sodipodi:ry="72.85714"
             sodipodi:rx="72.85714"
             sodipodi:cy="290.93362"
             sodipodi:cx="-830"
             id="path3632"
             style="fill:#000000;fill-opacity:1;stroke:none"
             sodipodi:type="arc"
             transform="matrix(0.21568624,0,0,0.21568624,-639.55185,245.3261)" />
        </g>
      </g>
      <path
         inkscape:export-ydpi="73.910004"
         inkscape:export-xdpi="73.910004"
         inkscape:export-filename=""
         transform="matrix(0.09691784,0,0,0.08831567,368.8578,393.58796)"
         d="m -85.714279,515.2193 a 80,37.142857 0 1 1 -160.000001,0 80,37.142857 0 1 1 160.000001,0 z"
         sodipodi:ry="37.142857"
         sodipodi:rx="80"
         sodipodi:cy="515.2193"
         sodipodi:cx="-165.71428"
         id="path3634"
         style="fill:#000000;fill-opacity:1;stroke:none"
         sodipodi:type="arc" />
      <path
         inkscape:export-ydpi="73.910004"
         inkscape:export-xdpi="73.910004"
         inkscape:export-filename=""
         sodipodi:type="arc"
         style="fill:#000000;fill-opacity:1;stroke:none"
         id="path3636"
         sodipodi:cx="-165.71428"
         sodipodi:cy="515.2193"
         sodipodi:rx="80"
         sodipodi:ry="37.142857"
         d="m -85.714279,515.2193 a 80,37.142857 0 1 1 -160.000001,0 80,37.142857 0 1 1 160.000001,0 z"
         transform="matrix(0.06896077,0,0,0.05620088,373.9167,431.60513)" />
    </g>
  </g>
</svg>
