<?xml version="1.0" encoding="UTF-8" standalone="no"?>
<!-- Created with Inkscape (http://www.inkscape.org/) -->

<svg
   xmlns:dc="http://purl.org/dc/elements/1.1/"
   xmlns:cc="http://creativecommons.org/ns#"
   xmlns:rdf="http://www.w3.org/1999/02/22-rdf-syntax-ns#"
   xmlns:svg="http://www.w3.org/2000/svg"
   xmlns="http://www.w3.org/2000/svg"
   xmlns:sodipodi="http://sodipodi.sourceforge.net/DTD/sodipodi-0.dtd"
   xmlns:inkscape="http://www.inkscape.org/namespaces/inkscape"
   width="744.09448819"
   height="1052.3622047"
   id="svg6784"
   version="1.1"
   inkscape:version="0.48.2 r9819"
   sodipodi:docname="no_litter.svg"
   inkscape:export-filename=""
   inkscape:export-xdpi="90"
   inkscape:export-ydpi="90">
  <defs
     id="defs6786">
    <marker
       viewBox="0 0 10 10"
       refY="5"
       refX="10"
       orient="auto"
       markerWidth="4"
       markerUnits="strokeWidth"
       markerHeight="3"
       id="ArrowStart">
      <path
         id="path3298"
         d="M 10 0 L 0 5 L 10 10 z" />
    </marker>
    <marker
       viewBox="0 0 10 10"
       refY="5"
       refX="0"
       orient="auto"
       markerWidth="4"
       markerUnits="strokeWidth"
       markerHeight="3"
       id="ArrowEnd">
      <path
         id="path3295"
         d="M 0 0 L 10 5 L 0 10 z" />
    </marker>
  </defs>
  <sodipodi:namedview
     id="base"
     pagecolor="#ffffff"
     bordercolor="#666666"
     borderopacity="1.0"
     inkscape:pageopacity="0.0"
     inkscape:pageshadow="2"
     inkscape:zoom="2.8"
     inkscape:cx="320.79538"
     inkscape:cy="819.43041"
     inkscape:document-units="px"
     inkscape:current-layer="layer1"
     showgrid="false"
     inkscape:window-width="1006"
     inkscape:window-height="929"
     inkscape:window-x="583"
     inkscape:window-y="78"
     inkscape:window-maximized="0"
     showguides="true"
     inkscape:guide-bbox="true">
    <sodipodi:guide
       orientation="0,1"
       position="264.64286,747.5"
       id="guide6902" />
    <sodipodi:guide
       orientation="0,1"
       position="233.57143,904.28572"
       id="guide6904" />
  </sodipodi:namedview>
  <metadata
     id="metadata6789">
    <rdf:RDF>
      <cc:Work
         rdf:about="">
        <dc:format>image/svg+xml</dc:format>
        <dc:type
           rdf:resource="http://purl.org/dc/dcmitype/StillImage" />
        <dc:title></dc:title>
      </cc:Work>
    </rdf:RDF>
  </metadata>
  <g
     inkscape:label="Layer 1"
     inkscape:groupmode="layer"
     id="layer1">
    <rect
       style="fill:#ffffff;fill-opacity:1;stroke:none"
       id="rect6792"
       width="144"
       height="168"
       x="254.28572"
       y="148.07646"
       inkscape:export-filename=""
       inkscape:export-xdpi="90"
       inkscape:export-ydpi="90" />
    <g
       id="g3300"
       transform="matrix(0.28963739,0,0,0.28963739,273.87989,153.57646)"
       inkscape:export-filename=""
       inkscape:export-xdpi="90"
       inkscape:export-ydpi="90">
      <g
         id="g3302">
        <path
           style="fill:#000000;stroke:none"
           id="path3304"
           d="m 268.409,81.671 c 22.55,0 40.834,-18.284 40.834,-40.835 C 309.243,18.284 290.959,0 268.409,0 c -22.552,0 -40.834,18.284 -40.834,40.836 0,22.551 18.282,40.835 40.834,40.835 z"
           inkscape:connector-curvature="0" />
        <path
           style="fill:#000000;stroke:none"
           id="path3306"
           d="m 215.941,156.723 0.25,311.75 c 0,31.184 45.858,30.899 45.858,-0.714 l 0.027,-181.366 8.926,-0.086 -0.028,181.367 c 0,31.612 46.393,32.411 46.393,0.799 l 0.027,-313.057 8.058,0 0,111.795 c 0,26.838 36.42,26.838 36.42,0.48 l 0,-122.298 c 0,-32.876 -24.469,-52.237 -50.348,-52.237 l -72.611,0 c -17.222,0 -29.722,6.817 -40.222,21.817 l -36.75,53.554 -63.77,0 c -25.624,0 -24.186,36.34 -0.48,36.34 l 73.5,0 c 5.751,0 12.75,-2.144 16.773,-8.148 l 27.977,-39.996 z"
           inkscape:connector-curvature="0" />
      </g>
      <g
         id="g3308">
        <g
           id="g3310">
          <g
             id="g3312">
            <path
               style="fill:#000000;stroke:none"
               id="path3314"
               d="m 96.123,347.927 0,-29.863 -29.863,0 0,29.863 29.863,0 z"
               inkscape:connector-curvature="0" />
            <path
               style="fill:#000000;stroke:none"
               id="path3316"
               d="M 81.191,332.996"
               inkscape:connector-curvature="0" />
          </g>
          <g
             id="g3318">
            <path
               style="fill:#000000;stroke:none"
               id="path3320"
               d="M 112.332,281.652 90.581,259.9 l -21.75,21.752 21.75,21.749 21.751,-21.749 z"
               inkscape:connector-curvature="0" />
            <path
               style="fill:#000000;stroke:none"
               id="path3322"
               d="M 90.581,281.652"
               inkscape:connector-curvature="0" />
          </g>
          <g
             id="g3324">
            <path
               style="fill:#000000;stroke:none"
               id="path3326"
               d="M 92.042,240.571 70.29,218.822 48.539,240.571 70.29,262.323 92.042,240.571 z"
               inkscape:connector-curvature="0" />
            <path
               style="fill:#000000;stroke:none"
               id="path3328"
               d="M 70.29,240.571"
               inkscape:connector-curvature="0" />
          </g>
        </g>
        <path
           style="fill:#000000;stroke:none"
           id="path3330"
           d="m 137.191,491.561 38.776,-206.161 -29.172,0 -33.984,177.447 -50.383,0 -33.256,-177.374 -29.172,0 38.048,206.088 99.143,0 z"
           inkscape:connector-curvature="0" />
      </g>
    </g>
  </g>
</svg>
